SplineFontDB: 3.2
FontName: UnicodiaEgypFixupRegular
FullName: UnicodiaEgypFixupRegular
FamilyName: UnicodiaEgypFixup
Weight: Regular
Copyright: Copyright 2022 The Noto Project Authors (https://github.com/notofonts/egyptian-hieroglyphs)
Version: 2.1
ItalicAngle: 0
UnderlinePosition: -100
UnderlineWidth: 50
Ascent: 800
Descent: 200
InvalidEm: 1
UFOAscent: 1001
UFODescent: -138
LayerCount: 2
Layer: 0 0 "+BBcEMAQ0BD0EOAQ5 +BD8EOwQwBD0A" 1
Layer: 1 0 "public.default" 0 "glyphs"
StyleMap: 0x0040
FSType: 0
OS2Version: 0
OS2_WeightWidthSlopeOnly: 0
OS2_UseTypoMetrics: 0
CreationTime: 1698529057
ModificationTime: 1708449328
PfmFamily: 17
TTFWeight: 400
TTFWidth: 5
LineGap: 0
VLineGap: 0
Panose: 2 11 5 2 4 5 4 2 2 4
OS2TypoAscent: 1324
OS2TypoAOffset: 0
OS2TypoDescent: -326
OS2TypoDOffset: 0
OS2TypoLinegap: 0
OS2WinAscent: 1324
OS2WinAOffset: 0
OS2WinDescent: 326
OS2WinDOffset: 0
HheadAscent: 1324
HheadAOffset: 0
HheadDescent: -326
HheadDOffset: 0
OS2CapHeight: 900
OS2XHeight: 536
OS2Vendor: 'GOOG'
OS2CodePages: 00000001.00000000
OS2UnicodeRanges: 80000003.02002000.00000000.00000000
MarkAttachClasses: 1
DEI: 91125
LangName: 1033 "Copyright 2022 The Noto Project Authors (https://github.com/notofonts/egyptian-hieroglyphs)" "" "" "" "" "Version 2.001" "" "Noto is a trademark of Google Inc." "Monotype Imaging Inc." "Monotype Design Team" "Designed by Monotype design team." "http://www.google.com/get/noto/" "http://www.monotype.com/studio" "This Font Software is licensed under the SIL Open Font License, Version 1.1. This license is available with a FAQ at: https://scripts.sil.org/OFL" "https://scripts.sil.org/OFL"
Encoding: UnicodeFull
Compacted: 1
UnicodeInterp: none
NameList: AGL For New Fonts
DisplaySize: -48
AntiAlias: 1
FitToEm: 0
WinInfo: 0 33 14
BeginPrivate: 4
BlueValues 33 [-15 0 536 551 900 915 1001 1016]
OtherBlues 11 [-153 -138]
StemSnapH 7 [19 51]
StemSnapV 7 [19 51]
EndPrivate
Grid
46.5 1300 m 1
 46.5 -700 l 1025
EndSplineSet

StartChar: .notdef
Encoding: 1114112 -1 0
GlifName: _notdef
Width: 600
VWidth: 0
Flags: W
LayerCount: 2
Fore
SplineSet
94 0 m 257
 505 0 l 257
 505 714 l 257
 94 714 l 257
 94 0 l 257
145 51 m 257
 145 663 l 257
 454 663 l 257
 454 51 l 257
 145 51 l 257
EndSplineSet
EndChar

StartChar: u133FA
Encoding: 78842 78842 3
GlifName: u133F_A_
Width: 117
VWidth: 0
Flags: W
HStem: 0 21G<49 68>
VStem: 49 19<0 416>
LayerCount: 2
Fore
SplineSet
49 0 m 257
 49 416 l 261
 68 416 l 257
 68 0 l 257
 49 0 l 257
EndSplineSet
EndChar

StartChar: u133FB
Encoding: 78843 78843 4
GlifName: u133F_B_
Width: 274
VWidth: 0
Flags: W
HStem: 0 21G<49 68 206 225>
VStem: 49 19<0 416> 206 19<0 416>
LayerCount: 2
Fore
SplineSet
206 0 m 257
 206 416 l 257
 225 416 l 257
 225 0 l 257
 206 0 l 257
49 0 m 257
 49 416 l 257
 68 416 l 257
 68 0 l 257
 49 0 l 257
EndSplineSet
EndChar

StartChar: u133FC
Encoding: 78844 78844 5
GlifName: u133F_C_
Width: 431
VWidth: 0
Flags: W
HStem: 0 21G<49 68 206 225 362 382>
VStem: 49 19<0 416> 206 19<0 416> 362 20<0 416>
CounterMasks: 1 70
LayerCount: 2
Fore
SplineSet
362 0 m 257
 362 416 l 257
 382 416 l 257
 382 0 l 257
 362 0 l 257
49 0 m 257
 49 416 l 257
 68 416 l 257
 68 0 l 257
 49 0 l 257
206 0 m 257
 206 416 l 257
 225 416 l 257
 225 0 l 257
 206 0 l 257
EndSplineSet
EndChar

StartChar: u133FD
Encoding: 78845 78845 6
GlifName: u133F_D_
Width: 587
VWidth: 0
Flags: W
HStem: 0 21G<49 68 206 225 362 382 519 539>
VStem: 49 19<0 416> 206 19<0 416> 362 20<0 416> 519 20<0 416>
CounterMasks: 1 78
LayerCount: 2
Fore
SplineSet
519 0 m 257
 519 416 l 257
 539 416 l 257
 539 0 l 257
 519 0 l 257
49 0 m 257
 49 416 l 257
 68 416 l 257
 68 0 l 257
 49 0 l 257
206 0 m 257
 206 416 l 257
 225 416 l 257
 225 0 l 257
 206 0 l 257
362 0 m 257
 362 416 l 257
 382 416 l 257
 382 0 l 257
 362 0 l 257
EndSplineSet
EndChar

StartChar: u133FE
Encoding: 78846 78846 7
GlifName: u133F_E_
Width: 431
VWidth: 0
Flags: W
HStem: 0 21G<128 147 285 304>
VStem: 49 19<527 943> 128 19<0 416> 206 19<527 943> 285 19<0 416> 362 20<527 943>
CounterMasks: 1 54
LayerCount: 2
Fore
SplineSet
362 527 m 257
 362 943 l 257
 382 943 l 257
 382 527 l 257
 362 527 l 257
128 0 m 257
 128 416 l 257
 147 416 l 257
 147 0 l 257
 128 0 l 257
285 0 m 257
 285 416 l 257
 304 416 l 257
 304 0 l 257
 285 0 l 257
49 527 m 257
 49 943 l 257
 68 943 l 257
 68 527 l 257
 49 527 l 257
206 527 m 257
 206 943 l 257
 225 943 l 257
 225 527 l 257
 206 527 l 257
EndSplineSet
EndChar

StartChar: u133FF
Encoding: 78847 78847 8
GlifName: u133F_F_
Width: 431
VWidth: 0
Flags: W
HStem: 0 21G<49 68 206 225 362 382>
VStem: 49 19<0 416 527 943> 206 19<0 416 527 943> 362 20<0 416 527 943>
CounterMasks: 1 70
LayerCount: 2
Fore
SplineSet
362 527 m 257
 362 943 l 257
 382 943 l 257
 382 527 l 257
 362 527 l 257
49 0 m 257
 49 416 l 257
 68 416 l 257
 68 0 l 257
 49 0 l 257
206 0 m 257
 206 416 l 257
 225 416 l 257
 225 0 l 257
 206 0 l 257
362 0 m 257
 362 416 l 257
 382 416 l 257
 382 0 l 257
 362 0 l 257
49 527 m 257
 49 943 l 257
 68 943 l 257
 68 527 l 257
 49 527 l 257
206 527 m 257
 206 943 l 257
 225 943 l 257
 225 527 l 257
 206 527 l 257
EndSplineSet
EndChar

StartChar: u13400
Encoding: 78848 78848 9
GlifName: u13400
Width: 587
VWidth: 0
Flags: W
HStem: 0 21G<127 146 284 303 440 460>
VStem: 49 19<527 943> 127 19<0 416> 206 19<527 943> 284 19<0 416> 362 20<527 943> 440 20<0 416> 519 20<527 943>
CounterMasks: 2 55 2a
LayerCount: 2
Fore
SplineSet
519 527 m 257
 519 943 l 257
 539 943 l 257
 539 527 l 257
 519 527 l 257
127 0 m 257
 127 416 l 257
 146 416 l 257
 146 0 l 257
 127 0 l 257
284 0 m 257
 284 416 l 257
 303 416 l 257
 303 0 l 257
 284 0 l 257
440 0 m 257
 440 416 l 257
 460 416 l 257
 460 0 l 257
 440 0 l 257
49 527 m 257
 49 943 l 257
 68 943 l 257
 68 527 l 257
 49 527 l 257
206 527 m 257
 206 943 l 257
 225 943 l 257
 225 527 l 257
 206 527 l 257
362 527 m 257
 362 943 l 257
 382 943 l 257
 382 527 l 257
 362 527 l 257
EndSplineSet
EndChar

StartChar: u13401
Encoding: 78849 78849 10
GlifName: u13401
Width: 587
VWidth: 0
Flags: W
HStem: 0 21G<49 68 206 225 362 382 519 539>
VStem: 49 19<0 416 527 943> 206 19<0 416 527 943> 362 20<0 416 527 943> 519 20<0 416 527 943>
CounterMasks: 1 78
LayerCount: 2
Fore
SplineSet
519 527 m 257
 519 943 l 257
 539 943 l 257
 539 527 l 257
 519 527 l 257
49 0 m 257
 49 416 l 257
 68 416 l 257
 68 0 l 257
 49 0 l 257
206 0 m 257
 206 416 l 257
 225 416 l 257
 225 0 l 257
 206 0 l 257
362 0 m 257
 362 416 l 257
 382 416 l 257
 382 0 l 257
 362 0 l 257
519 0 m 257
 519 416 l 257
 539 416 l 257
 539 0 l 257
 519 0 l 257
49 527 m 257
 49 943 l 257
 68 943 l 257
 68 527 l 257
 49 527 l 257
206 527 m 257
 206 943 l 257
 225 943 l 257
 225 527 l 257
 206 527 l 257
362 527 m 257
 362 943 l 257
 382 943 l 257
 382 527 l 257
 362 527 l 257
EndSplineSet
EndChar

StartChar: u13402
Encoding: 78850 78850 11
GlifName: u13402
Width: 431
VWidth: 0
Flags: W
HStem: 982 20G<49 68 206 225 362 382>
VStem: 49 19<-34 260 337 631 708 1002> 206 19<-34 260 337 631 708 1002> 362 20<-34 260 337 631 708 1002>
CounterMasks: 1 70
LayerCount: 2
Fore
SplineSet
362 708 m 257
 362 1002 l 257
 382 1002 l 257
 382 708 l 257
 362 708 l 257
49 -34 m 257
 49 260 l 257
 68 260 l 257
 68 -34 l 257
 49 -34 l 257
206 -34 m 257
 206 260 l 257
 225 260 l 257
 225 -34 l 257
 206 -34 l 257
362 -34 m 257
 362 260 l 257
 382 260 l 257
 382 -34 l 257
 362 -34 l 257
49 337 m 257
 49 631 l 257
 68 631 l 257
 68 337 l 257
 49 337 l 257
206 337 m 257
 206 631 l 257
 225 631 l 257
 225 337 l 257
 206 337 l 257
362 337 m 257
 362 631 l 257
 382 631 l 257
 382 337 l 257
 362 337 l 257
49 708 m 257
 49 1002 l 257
 68 1002 l 257
 68 708 l 257
 49 708 l 257
206 708 m 257
 206 1002 l 257
 225 1002 l 257
 225 708 l 257
 206 708 l 257
EndSplineSet
EndChar

StartChar: u13403
Encoding: 78851 78851 12
GlifName: u13403
Width: 744
VWidth: 0
Flags: W
HStem: 0 21G<49 68 206 225 362 382 519 539 676 695>
VStem: 49 19<0 416> 206 19<0 416> 362 20<0 416> 519 20<0 416> 676 19<0 416>
CounterMasks: 1 7c
LayerCount: 2
Fore
SplineSet
519 0 m 257
 519 416 l 257
 539 416 l 257
 539 0 l 257
 519 0 l 257
49 0 m 257
 49 416 l 257
 68 416 l 257
 68 0 l 257
 49 0 l 257
206 0 m 257
 206 416 l 257
 225 416 l 257
 225 0 l 257
 206 0 l 257
362 0 m 257
 362 416 l 257
 382 416 l 257
 382 0 l 257
 362 0 l 257
676 0 m 257
 676 416 l 257
 695 416 l 257
 695 0 l 257
 676 0 l 257
EndSplineSet
EndChar

StartChar: u13404
Encoding: 78852 78852 13
GlifName: u13404
Width: 513
VWidth: 0
Flags: WO
HStem: 198 19<49 464>
LayerCount: 2
Fore
SplineSet
49 217 m 257
 464 217 l 257
 464 198 l 257
 49 198 l 257
 49 217 l 257
EndSplineSet
EndChar

StartChar: u13405
Encoding: 78853 78853 14
GlifName: u13405
Width: 513
VWidth: 0
Flags: W
HStem: 115 19<49 464> 281 19<49 464>
LayerCount: 2
Fore
SplineSet
49 281 m 257
 49 300 l 257
 464 300 l 257
 464 281 l 257
 49 281 l 257
49 115 m 257
 49 134 l 257
 464 134 l 257
 464 115 l 257
 49 115 l 257
EndSplineSet
EndChar

StartChar: u13406
Encoding: 78854 78854 15
GlifName: u13406
Width: 513
VWidth: 0
Flags: W
HStem: 32 19<49 464> 198 19<49 464> 364 19<49 464>
CounterMasks: 1 e0
LayerCount: 2
Fore
SplineSet
49 364 m 257
 49 383 l 257
 464 383 l 257
 464 364 l 257
 49 364 l 257
49 32 m 257
 49 51 l 257
 464 51 l 257
 464 32 l 257
 49 32 l 257
49 198 m 257
 49 217 l 257
 464 217 l 257
 464 198 l 257
 49 198 l 257
EndSplineSet
EndChar

StartChar: u13407
Encoding: 78855 78855 16
GlifName: u13407
Width: 513
VWidth: 0
Flags: W
HStem: -51 19<49 464> 115 19<49 464> 281 19<49 464> 447 19<49 464>
CounterMasks: 1 f0
LayerCount: 2
Fore
SplineSet
49 447 m 257
 49 466 l 257
 464 466 l 257
 464 447 l 257
 49 447 l 257
49 -51 m 257
 49 -32 l 257
 464 -32 l 257
 464 -51 l 257
 49 -51 l 257
49 115 m 257
 49 134 l 257
 464 134 l 257
 464 115 l 257
 49 115 l 257
49 281 m 257
 49 300 l 257
 464 300 l 257
 464 281 l 257
 49 281 l 257
EndSplineSet
EndChar

StartChar: u13408
Encoding: 78856 78856 17
GlifName: u13408
Width: 1006
VWidth: 0
Flags: W
HStem: 32 19<49 464> 115 19<542 958> 198 19<49 464> 281 19<542 958> 364 19<49 464>
CounterMasks: 1 a8
LayerCount: 2
Fore
SplineSet
542 281 m 257
 542 300 l 257
 958 300 l 257
 958 281 l 257
 542 281 l 257
49 32 m 257
 49 51 l 257
 464 51 l 257
 464 32 l 257
 49 32 l 257
49 198 m 257
 49 217 l 257
 464 217 l 257
 464 198 l 257
 49 198 l 257
49 364 m 257
 49 383 l 257
 464 383 l 257
 464 364 l 257
 49 364 l 257
542 115 m 257
 542 134 l 257
 958 134 l 257
 958 115 l 257
 542 115 l 257
EndSplineSet
EndChar

StartChar: u13409
Encoding: 78857 78857 18
GlifName: u13409
Width: 1006
VWidth: 0
Flags: W
HStem: 32 19<49 464 542 958> 198 19<49 464 542 958> 364 19<49 464 542 958>
CounterMasks: 1 e0
LayerCount: 2
Fore
SplineSet
542 364 m 257
 542 383 l 257
 958 383 l 257
 958 364 l 257
 542 364 l 257
49 32 m 257
 49 51 l 257
 464 51 l 257
 464 32 l 257
 49 32 l 257
49 198 m 257
 49 217 l 257
 464 217 l 257
 464 198 l 257
 49 198 l 257
49 364 m 257
 49 383 l 257
 464 383 l 257
 464 364 l 257
 49 364 l 257
542 32 m 257
 542 51 l 257
 958 51 l 257
 958 32 l 257
 542 32 l 257
542 198 m 257
 542 217 l 257
 958 217 l 257
 958 198 l 257
 542 198 l 257
EndSplineSet
EndChar

StartChar: u1340A
Encoding: 78858 78858 19
GlifName: u1340A_
Width: 1006
VWidth: 0
Flags: W
HStem: -51 19<49 464> 32 19<542 958> 115 19<49 464> 198 19<542 958> 281 19<49 464> 364 19<542 958> 447 19<49 464>
CounterMasks: 2 aa 54
LayerCount: 2
Fore
SplineSet
542 364 m 257
 542 383 l 257
 958 383 l 257
 958 364 l 257
 542 364 l 257
49 -51 m 257
 49 -32 l 257
 464 -32 l 257
 464 -51 l 257
 49 -51 l 257
49 115 m 257
 49 134 l 257
 464 134 l 257
 464 115 l 257
 49 115 l 257
49 281 m 257
 49 300 l 257
 464 300 l 257
 464 281 l 257
 49 281 l 257
49 447 m 257
 49 466 l 257
 464 466 l 257
 464 447 l 257
 49 447 l 257
542 32 m 257
 542 51 l 257
 958 51 l 257
 958 32 l 257
 542 32 l 257
542 198 m 257
 542 217 l 257
 958 217 l 257
 958 198 l 257
 542 198 l 257
EndSplineSet
EndChar

StartChar: u1340B
Encoding: 78859 78859 20
GlifName: u1340B_
Width: 1006
VWidth: 0
Flags: W
HStem: -51 19<49 464 542 958> 115 19<49 464 542 958> 281 19<49 464 542 958> 447 19<49 464 542 958>
CounterMasks: 1 f0
LayerCount: 2
Fore
SplineSet
542 447 m 257
 542 466 l 257
 958 466 l 257
 958 447 l 257
 542 447 l 257
49 -51 m 257
 49 -32 l 257
 464 -32 l 257
 464 -51 l 257
 49 -51 l 257
49 115 m 257
 49 134 l 257
 464 134 l 257
 464 115 l 257
 49 115 l 257
49 281 m 257
 49 300 l 257
 464 300 l 257
 464 281 l 257
 49 281 l 257
542 -51 m 257
 542 -32 l 257
 958 -32 l 257
 958 -51 l 257
 542 -51 l 257
49 447 m 257
 49 466 l 257
 464 466 l 257
 464 447 l 257
 49 447 l 257
542 115 m 257
 542 134 l 257
 958 134 l 257
 958 115 l 257
 542 115 l 257
542 281 m 257
 542 300 l 257
 958 300 l 257
 958 281 l 257
 542 281 l 257
EndSplineSet
EndChar

StartChar: u1340C
Encoding: 78860 78860 21
GlifName: u1340C_
Width: 1500
VWidth: 0
Flags: W
HStem: 32 19<49 464 542 958 1035 1451> 198 19<49 464 542 958 1035 1451> 364 19<49 464 542 958 1035 1451>
CounterMasks: 1 e0
LayerCount: 2
Fore
SplineSet
1035 364 m 257
 1035 383 l 257
 1451 383 l 257
 1451 364 l 257
 1035 364 l 257
49 32 m 257
 49 51 l 257
 464 51 l 257
 464 32 l 257
 49 32 l 257
49 198 m 257
 49 217 l 257
 464 217 l 257
 464 198 l 257
 49 198 l 257
49 364 m 257
 49 383 l 257
 464 383 l 257
 464 364 l 257
 49 364 l 257
542 32 m 257
 542 51 l 257
 958 51 l 257
 958 32 l 257
 542 32 l 257
542 198 m 257
 542 217 l 257
 958 217 l 257
 958 198 l 257
 542 198 l 257
542 364 m 257
 542 383 l 257
 958 383 l 257
 958 364 l 257
 542 364 l 257
1035 32 m 257
 1035 51 l 257
 1451 51 l 257
 1451 32 l 257
 1035 32 l 257
1035 198 m 257
 1035 217 l 257
 1451 217 l 257
 1451 198 l 257
 1035 198 l 257
EndSplineSet
EndChar

StartChar: uni200C
Encoding: 8204 8204 23
GlifName: uni200C_
Width: 0
VWidth: 0
VStem: -21 42
LayerCount: 2
Fore
SplineSet
-21 -133 m 257
 21 -133 l 257
 21 628 l 257
 -21 628 l 257
 -21 -133 l 257
EndSplineSet
EndChar

StartChar: uni200D
Encoding: 8205 8205 24
GlifName: uni200D_
Width: 0
VWidth: 0
HStem: 515 20G<-41 -21 21 41>
LayerCount: 2
Fore
SplineSet
-21 -133 m 257
 21 -133 l 257
 21 535 l 257
 83 473 l 257
 109 500 l 257
 27 582 l 257
 109 663 l 257
 83 690 l 257
 0 607 l 257
 -83 690 l 257
 -109 663 l 257
 -27 582 l 257
 -109 500 l 257
 -83 473 l 257
 -21 535 l 257
 -21 -133 l 257
EndSplineSet
EndChar

StartChar: uni25CC
Encoding: 9676 9676 25
GlifName: uni25C_C_
Width: 1389
VWidth: 0
GlyphClass: 2
Flags: W
HStem: -214.389 60<665.626 723.374> -196.061 60<526.41 584.158 804.842 862.59> -142.325 60<396.682 454.43 934.57 992.318> -56.8447 60<285.281 343.029 1045.97 1103.72> 54.5557 60<199.801 257.549 1131.45 1189.2> 184.284 60<146.066 203.813 1185.19 1242.93> 323.5 60<127.737 185.485 1203.51 1261.26> 462.716 60<146.066 203.813 1185.19 1242.93> 592.444 60<199.801 257.549 1131.45 1189.2> 703.845 60<285.281 343.029 1045.97 1103.72> 789.325 60<396.682 454.43 934.57 992.318> 843.061 60<526.41 584.158 804.842 862.59> 861.389 60<665.626 723.374>
VStem: 126.611 60<324.626 382.374> 144.939 60<185.41 243.158 463.842 521.59> 198.675 60<55.6817 113.43 593.57 651.318> 284.155 60<-55.7186 2.02919 704.971 762.719> 395.556 60<-141.199 -83.4513 790.451 848.199> 525.284 60<-194.934 -137.187 844.187 901.934> 664.5 60<-213.263 -155.515 862.515 920.263> 803.716 60<-194.935 -137.187 844.187 901.934> 933.444 60<-141.199 -83.4513 790.451 848.199> 1044.84 60<-55.7186 2.02919 704.971 762.719> 1130.33 60<55.6817 113.43 593.57 651.318> 1184.06 60<185.41 243.158 463.842 521.59> 1202.39 60<324.626 382.374>
LayerCount: 2
Fore
SplineSet
156.611328125 323.5 m 0x1fc4fe
 139.879482397 323.5 126.611328125 336.767231411 126.611328125 353.5 c 0
 126.611328125 370.231845728 139.878559536 383.5 156.611328125 383.5 c 0
 173.343173853 383.5 186.611328125 370.232768589 186.611328125 353.5 c 0
 186.611328125 336.768154272 173.344096714 323.5 156.611328125 323.5 c 0x1fc4fe
694.5 861.388671875 m 0x1fc8fe
 677.768154272 861.388671875 664.5 874.655903286 664.5 891.388671875 c 0
 664.5 908.120517603 677.767231411 921.388671875 694.5 921.388671875 c 0
 711.231845728 921.388671875 724.5 908.121440464 724.5 891.388671875 c 0
 724.5 874.656826147 711.232768589 861.388671875 694.5 861.388671875 c 0x1fc8fe
694.5 -214.388671875 m 0x9fc0fe
 677.768154272 -214.388671875 664.5 -201.121440464 664.5 -184.388671875 c 0
 664.5 -167.656826147 677.767231411 -154.388671875 694.5 -154.388671875 c 0
 711.231845728 -154.388671875 724.5 -167.655903286 724.5 -184.388671875 c 0
 724.5 -201.120517603 711.232768589 -214.388671875 694.5 -214.388671875 c 0x9fc0fe
1232.38867188 323.5 m 0
 1215.65682615 323.5 1202.38867188 336.767231411 1202.38867188 353.5 c 0
 1202.38867188 370.231845728 1215.65590329 383.5 1232.38867188 383.5 c 0
 1249.1205176 383.5 1262.38867188 370.232768589 1262.38867188 353.5 c 0x1fc0fe40
 1262.38867188 336.768154272 1249.12144046 323.5 1232.38867188 323.5 c 0
174.939453125 462.715820312 m 0
 158.207607397 462.715820312 144.939453125 475.983051723 144.939453125 492.715820312 c 0
 144.939453125 509.447666041 158.206684536 522.715820312 174.939453125 522.715820312 c 0
 191.671298853 522.715820312 204.939453125 509.448588902 204.939453125 492.715820312 c 0x1fc2fe
 204.939453125 475.983974584 191.672221714 462.715820312 174.939453125 462.715820312 c 0
228.674804688 592.444335938 m 0
 211.942958959 592.444335938 198.674804688 605.711567348 198.674804688 622.444335938 c 0
 198.674804688 639.176181666 211.942036098 652.444335938 228.674804688 652.444335938 c 0
 245.406650416 652.444335938 258.674804688 639.177104527 258.674804688 622.444335938 c 0x1fc1fe
 258.674804688 605.712490209 245.407573277 592.444335938 228.674804688 592.444335938 c 0
314.155273438 703.844726562 m 0
 297.423427709 703.844726562 284.155273438 717.111957973 284.155273438 733.844726562 c 0
 284.155273438 750.576572291 297.422504848 763.844726562 314.155273438 763.844726562 c 0
 330.887119166 763.844726562 344.155273438 750.577495152 344.155273438 733.844726562 c 0
 344.155273438 717.112880834 330.888042027 703.844726562 314.155273438 703.844726562 c 0
425.555664062 789.325195312 m 0x1fe0fe
 408.823818334 789.325195312 395.555664062 802.592426723 395.555664062 819.325195312 c 0
 395.555664062 836.057041041 408.822895473 849.325195312 425.555664062 849.325195312 c 0
 442.287509791 849.325195312 455.555664062 836.057963902 455.555664062 819.325195312 c 0
 455.555664062 802.593349584 442.288432652 789.325195312 425.555664062 789.325195312 c 0x1fe0fe
555.284179688 843.060546875 m 0x1fd0fe
 538.552333959 843.060546875 525.284179688 856.327778286 525.284179688 873.060546875 c 0
 525.284179688 889.792392603 538.551411098 903.060546875 555.284179688 903.060546875 c 0
 572.016025416 903.060546875 585.284179688 889.793315464 585.284179688 873.060546875 c 0
 585.284179688 856.328701147 572.016948277 843.060546875 555.284179688 843.060546875 c 0x1fd0fe
833.715820312 843.060546875 m 0
 816.983974584 843.060546875 803.715820312 856.327778286 803.715820312 873.060546875 c 0
 803.715820312 889.792392603 816.983051723 903.060546875 833.715820312 903.060546875 c 0
 850.447666041 903.060546875 863.715820312 889.793315464 863.715820312 873.060546875 c 0
 863.715820312 856.328701147 850.448588902 843.060546875 833.715820312 843.060546875 c 0
963.444335938 789.325195312 m 0x1fe0fe
 946.712490209 789.325195312 933.444335938 802.592426723 933.444335938 819.325195312 c 0
 933.444335938 836.057041041 946.711567348 849.325195312 963.444335938 849.325195312 c 0
 980.176181666 849.325195312 993.444335938 836.057963902 993.444335938 819.325195312 c 0
 993.444335938 802.593349584 980.177104527 789.325195312 963.444335938 789.325195312 c 0x1fe0fe
1074.84472656 703.844726562 m 0
 1058.11288083 703.844726562 1044.84472656 717.111957973 1044.84472656 733.844726562 c 0
 1044.84472656 750.576572291 1058.11195797 763.844726562 1074.84472656 763.844726562 c 0
 1091.57657229 763.844726562 1104.84472656 750.577495152 1104.84472656 733.844726562 c 0
 1104.84472656 717.112880834 1091.57749515 703.844726562 1074.84472656 703.844726562 c 0
1160.32519531 592.444335938 m 0
 1143.59334958 592.444335938 1130.32519531 605.711567348 1130.32519531 622.444335938 c 0
 1130.32519531 639.176181666 1143.59242672 652.444335938 1160.32519531 652.444335938 c 0
 1177.05704104 652.444335938 1190.32519531 639.177104527 1190.32519531 622.444335938 c 0x1fc0ff
 1190.32519531 605.712490209 1177.0579639 592.444335938 1160.32519531 592.444335938 c 0
1214.06054688 462.715820312 m 0
 1197.32870115 462.715820312 1184.06054688 475.983051723 1184.06054688 492.715820312 c 0
 1184.06054688 509.447666041 1197.32777829 522.715820312 1214.06054688 522.715820312 c 0
 1230.79340683 522.715820312 1244.06054688 509.448517889 1244.06054688 492.715820312 c 0x1fc0fe80
 1244.06054688 475.98312171 1230.7934058 462.715820312 1214.06054688 462.715820312 c 0
1214.06054688 184.284179688 m 0
 1197.32870115 184.284179688 1184.06054688 197.551411098 1184.06054688 214.284179688 c 0
 1184.06054688 231.016025416 1197.32777829 244.284179688 1214.06054688 244.284179688 c 0
 1230.7923926 244.284179688 1244.06054688 231.016948277 1244.06054688 214.284179688 c 0
 1244.06054688 197.552333959 1230.79331546 184.284179688 1214.06054688 184.284179688 c 0
1160.32519531 54.5556640625 m 0
 1143.59334958 54.5556640625 1130.32519531 67.8228954735 1130.32519531 84.5556640625 c 0
 1130.32519531 101.287509791 1143.59242672 114.555664062 1160.32519531 114.555664062 c 0
 1177.05704104 114.555664062 1190.32519531 101.288432652 1190.32519531 84.5556640625 c 0x1fc0ff
 1190.32519531 67.8238183342 1177.0579639 54.5556640625 1160.32519531 54.5556640625 c 0
1074.84472656 -56.8447265625 m 0
 1058.11288083 -56.8447265625 1044.84472656 -43.5774951515 1044.84472656 -26.8447265625 c 0
 1044.84472656 -10.1128808342 1058.11195797 3.1552734375 1074.84472656 3.1552734375 c 0
 1091.57657229 3.1552734375 1104.84472656 -10.1119579735 1104.84472656 -26.8447265625 c 0
 1104.84472656 -43.5765722908 1091.57749515 -56.8447265625 1074.84472656 -56.8447265625 c 0
963.444335938 -142.325195312 m 0x3fc0fe
 946.712490209 -142.325195312 933.444335938 -129.057963902 933.444335938 -112.325195312 c 0
 933.444335938 -95.5933495842 946.711567348 -82.3251953125 963.444335938 -82.3251953125 c 0
 980.176181666 -82.3251953125 993.444335938 -95.5924267235 993.444335938 -112.325195312 c 0
 993.444335938 -129.057041041 980.177104527 -142.325195312 963.444335938 -142.325195312 c 0x3fc0fe
833.715820312 -196.060546875 m 0x5fc0fe
 816.98312171 -196.060546875 803.715820312 -182.7934058 803.715820312 -166.060546875 c 0
 803.715820312 -149.328701147 816.983051723 -136.060546875 833.715820312 -136.060546875 c 0
 850.447666041 -136.060546875 863.715820312 -149.327778286 863.715820312 -166.060546875 c 0
 863.715820312 -182.793406826 850.448517889 -196.060546875 833.715820312 -196.060546875 c 0x5fc0fe
555.284179688 -196.060546875 m 0
 538.552333959 -196.060546875 525.284179688 -182.793315464 525.284179688 -166.060546875 c 0
 525.284179688 -149.328701147 538.551411098 -136.060546875 555.284179688 -136.060546875 c 0
 572.016025416 -136.060546875 585.284179688 -149.327778286 585.284179688 -166.060546875 c 0
 585.284179688 -182.792392603 572.016948277 -196.060546875 555.284179688 -196.060546875 c 0
425.555664062 -142.325195312 m 0x3fc0fe
 408.823818334 -142.325195312 395.555664062 -129.057963902 395.555664062 -112.325195312 c 0
 395.555664062 -95.5933495842 408.822895473 -82.3251953125 425.555664062 -82.3251953125 c 0
 442.287509791 -82.3251953125 455.555664062 -95.5924267235 455.555664062 -112.325195312 c 0
 455.555664062 -129.057041041 442.288432652 -142.325195312 425.555664062 -142.325195312 c 0x3fc0fe
314.155273438 -56.8447265625 m 0
 297.423427709 -56.8447265625 284.155273438 -43.5774951515 284.155273438 -26.8447265625 c 0
 284.155273438 -10.1128808342 297.422504848 3.1552734375 314.155273438 3.1552734375 c 0
 330.887119166 3.1552734375 344.155273438 -10.1119579735 344.155273438 -26.8447265625 c 0
 344.155273438 -43.5765722908 330.888042027 -56.8447265625 314.155273438 -56.8447265625 c 0
228.674804688 54.5556640625 m 0
 211.942958959 54.5556640625 198.674804688 67.8228954735 198.674804688 84.5556640625 c 0
 198.674804688 101.287509791 211.942036098 114.555664062 228.674804688 114.555664062 c 0
 245.406650416 114.555664062 258.674804688 101.288432652 258.674804688 84.5556640625 c 0x1fc1fe
 258.674804688 67.8238183342 245.407573277 54.5556640625 228.674804688 54.5556640625 c 0
174.939453125 184.284179688 m 0
 158.207607397 184.284179688 144.939453125 197.551411098 144.939453125 214.284179688 c 0
 144.939453125 231.016025416 158.206684536 244.284179688 174.939453125 244.284179688 c 0
 191.671298853 244.284179688 204.939453125 231.016948277 204.939453125 214.284179688 c 0x1fc2fe
 204.939453125 197.552333959 191.672221714 184.284179688 174.939453125 184.284179688 c 0
EndSplineSet
EndChar

StartChar: u13455
Encoding: 78933 78933 26
Width: 0
Flags: W
LayerCount: 2
Fore
SplineSet
-1237 967 m 1
 -1209 967 l 1
 -1340 836 l 1
 -1340 864 l 1
 -1237 967 l 1
-1047 967 m 1
 -1019 967 l 1
 -1340 646 l 1
 -1340 674 l 1
 -1047 967 l 1
-857 967 m 1
 -829 967 l 1
 -1340 456 l 1
 -1340 484 l 1
 -857 967 l 1
-667 967 m 1
 -639 967 l 1
 -1340 266 l 1
 -1340 294 l 1
 -667 967 l 1
-477 967 m 1
 -449 967 l 1
 -1340 76 l 1
 -1340 104 l 1
 -477 967 l 1
-287 967 m 1
 -259 967 l 1
 -1340 -114 l 1
 -1340 -86 l 1
 -287 967 l 1
-97 967 m 1
 -69 967 l 1
 -1296 -260 l 1
 -1324 -260 l 1
 -97 967 l 1
-49 825 m 1
 -49 797 l 1
 -1106 -260 l 1
 -1134 -260 l 1
 -49 825 l 1
-49 635 m 1
 -49 607 l 1
 -916 -260 l 1
 -944 -260 l 1
 -49 635 l 1
-49 445 m 1
 -49 417 l 1
 -726 -260 l 1
 -754 -260 l 1
 -49 445 l 1
-49 255 m 1
 -49 227 l 1
 -536 -260 l 1
 -564 -260 l 1
 -49 255 l 1
-49 65 m 1
 -49 37 l 1
 -346 -260 l 1
 -374 -260 l 1
 -49 65 l 1
-49 -125 m 1
 -49 -153 l 1
 -156 -260 l 1
 -184 -260 l 1
 -49 -125 l 1
EndSplineSet
EndChar
